<svg  viewBox="-25 -25 150 150" width="150" height="150"
     xmlns="http://www.w3.org/2000/svg" xmlns:xlink="http://www.w3.org/1999/xlink" > 

  <g  transform="scale(1.5)" fill="#fff"  >
    <g  id="Group_3" data-name="Group 3">
      <g id="Path_5" data-name="Path 5" class="cls-1" transform="translate(0 1)">
        <path class="cls-4" d="M 33.97079467773438 66.44151306152344 C 29.58660507202148 66.44151306152344 25.33435440063477 65.58320617675781 21.33215522766113 63.89041519165039 C 17.46573448181152 62.25506591796875 13.9930248260498 59.91359710693359 11.01047420501709 56.93104553222656 C 8.027935028076172 53.94850540161133 5.686464786529541 50.47579574584961 4.051104545593262 46.609375 C 2.358314752578735 42.60718536376953 1.500004649162292 38.35493469238281 1.500004649162292 33.97075653076172 C 1.500004649162292 29.58657646179199 2.358314752578735 25.33432579040527 4.051104545593262 21.3321361541748 C 5.686464786529541 17.46571731567383 8.027935028076172 13.99300670623779 11.01047420501709 11.01046657562256 C 13.9930248260498 8.02791690826416 17.46573448181152 5.686446666717529 21.33215522766113 4.051096439361572 C 25.33435440063477 2.358306646347046 29.58660507202148 1.499996542930603 33.97079467773438 1.499996542930603 C 38.35498428344727 1.499996542930603 42.60723495483398 2.358306646347046 46.60943603515625 4.051096439361572 C 50.47585296630859 5.686446666717529 53.94857406616211 8.02791690826416 56.93111419677734 11.01046657562256 C 59.91366577148438 13.99300670623779 62.25513458251953 17.46571731567383 63.89049530029297 21.3321361541748 C 65.58328247070313 25.33432579040527 66.44159698486328 29.58657646179199 66.44159698486328 33.97075653076172 C 66.44159698486328 38.35493469238281 65.58328247070313 42.60718536376953 63.89049530029297 46.609375 C 62.25513458251953 50.47579574584961 59.91366577148438 53.94850540161133 56.93111419677734 56.93104553222656 C 53.94857406616211 59.91359710693359 50.47585296630859 62.25506591796875 46.60943603515625 63.89041519165039 C 42.60723495483398 65.58320617675781 38.35498428344727 66.44151306152344 33.97079467773438 66.44151306152344 Z"/>
        <path class="cls-5" d="M 33.97079467773438 64.94151306152344 C 38.15314865112305 64.94151306152344 42.20880508422852 64.12306976318359 46.02510452270508 62.5089111328125 C 49.71272659301758 60.94918060302734 53.02518463134766 58.71565628051758 55.87046051025391 55.87038803100586 C 58.71572875976563 53.02512359619141 60.94924926757813 49.71266937255859 62.50898361206055 46.02505493164063 C 64.12315368652344 42.20875549316406 64.94159698486328 38.15310287475586 64.94159698486328 33.97075653076172 C 64.94159698486328 29.78841209411621 64.12315368652344 25.73275566101074 62.50898361206055 21.91645622253418 C 60.94924926757813 18.22884559631348 58.71572875976563 14.91638946533203 55.87046051025391 12.07112312316895 C 53.02518463134766 9.225856781005859 49.71272659301758 6.992334365844727 46.02510452270508 5.432600975036621 C 42.20880508422852 3.818445444107056 38.15314865112305 3.000000953674316 33.97079467773438 3.000000953674316 C 29.78843879699707 3.000000953674316 25.73278427124023 3.818445444107056 21.91648292541504 5.432600975036621 C 18.22886085510254 6.992334365844727 14.91640567779541 9.225856781005859 12.07113933563232 12.07112312316895 C 9.225861549377441 14.91638946533203 6.992339134216309 18.22884559631348 5.432605743408203 21.91645622253418 C 3.818450212478638 25.73275566101074 3.000005722045898 29.78841209411621 3.000005722045898 33.97075653076172 C 3.000005722045898 38.15310287475586 3.818450212478638 42.20875549316406 5.432605743408203 46.02505493164063 C 6.992339134216309 49.71266937255859 9.225861549377441 53.02512359619141 12.07113933563232 55.87038803100586 C 14.91640567779541 58.71565628051758 18.22886085510254 60.94918060302734 21.91648292541504 62.5089111328125 C 25.73278427124023 64.12306976318359 29.78843879699707 64.94151306152344 33.97079467773438 64.94151306152344 M 33.97079467773438 67.94151306152344 C 15.20923900604248 67.94151306152344 5.788845555798616e-06 52.7322883605957 5.788845555798616e-06 33.97075653076172 C 5.788845555798616e-06 15.2092227935791 15.20923900604248 9.752061487233732e-07 33.97079467773438 9.752061487233732e-07 C 52.73234939575195 9.752061487233732e-07 67.94159698486328 15.2092227935791 67.94159698486328 33.97075653076172 C 67.94159698486328 52.7322883605957 52.73234939575195 67.94151306152344 33.97079467773438 67.94151306152344 Z"/>
      </g>
      <ellipse id="Ellipse_2" data-name="Ellipse 2" class="cls-2" cx="28.999" cy="28.999" rx="28.999" ry="28.999" transform="translate(4.971 6.06)"/>
      <path id="Path_1" data-name="Path 1" class="cls-3" d="M12.99,0S5.6,10.261,6.222,16.656s4.828,9.9,23.881,8.678,16.049-1.755,16.049-1.755L47,29.888S33.848,32.3,25.813,33.424c-6.228.542-19.195,2.3-24.071-4.765C-3.011,22.236,3.395,11.011,4.095,9.646A68.883,68.883,0,0,1,9.619.72Z" transform="translate(12.141 8.968) rotate(-11)"/>
      <g id="Group_1" data-name="Group 1" transform="translate(24.946 42.416) rotate(-2)">
        <g id="Group_2" data-name="Group 2" transform="matrix(0.999, -0.035, 0.035, 0.999, 0, 0.656)">
          <rect id="Rectangle_1" data-name="Rectangle 1" class="cls-3" width="7.471" height="7.471" rx="2" transform="translate(5.283 0) rotate(45)"/>
          <rect id="Rectangle_2" data-name="Rectangle 2" class="cls-3" width="7.471" height="7.471" rx="2" transform="translate(13.501 0) rotate(45)"/>
          <rect id="Rectangle_3" data-name="Rectangle 3" class="cls-3" width="7.018" height="7.018" rx="2" transform="translate(9.399 8.952) rotate(45)"/>
        </g>
      </g>
    </g>
  </g>

  <defs>
    <style>
      .cls-1, .cls-3 {
      fill: #fff;
      }

      .cls-2, .cls-5 {
      fill: #288ed9;
      }

      .cls-4, .cls-5 {
      stroke: none;
      }
    </style>
  </defs>
</svg>